# xmcd CD database file
#
# Track frame offsets:
#	150
#	17184
#	35374
#	53030
#	72087
#	92378
#	109146
#	128698
#	146814
#	165056
#	184350
#	201456
#	224561
#	242901
#	262008
#	281740
#	300265
#	315956
#
# Disc length: 4441 seconds
#
# Revision: 1
# Processed by: cddbd v1.5.2PL0 Copyright (c) Steve Scherf et al.
# Submitted via: CDex 1.51
#
DISCID=01115712
DTITLE=Various Artist - SF-334
DYEAR=1900
DGENRE=Blues
TTITLE0=Lily Allen - Somewhere Only We Know
TTITLE1=Mariah Carey - The Art Of Letting Go
TTITLE2=Katy Perry - Unconditionally
TTITLE3=Lady Ga Ga Ft R Kelly - Do What U Want
TTITLE4=Eminem Ft Rihanna - The Monster
TTITLE5=Wanted The - Show Me Love (America)
TTITLE6=One Direction - Story Of My Life
TTITLE7=cFly - Love Is On The Radio
TTITLE8=Cher - I Hope You Find It
TTITLE9=Leona Lewis - One More Sleep
TTITLE10=Jessie J - Thunder
TTITLE11=Ed Sheeran - I See Fire
TTITLE12=Jason Derulo - Trumpets
TTITLE13=Taylor Swift - Sweeter Than Fiction
TTITLE14=Bruno Mars - Gorilla (clean)
TTITLE15=Celine Dion - Loved Me Back To Life
TTITLE16=Boyzone - Love Will Save The Day
TTITLE17=Lily Allen - Hard Out There (clean)
EXTD=
EXTT0=
EXTT1=
EXTT2=
EXTT3=
EXTT4=
EXTT5=
EXTT6=
EXTT7=
EXTT8=
EXTT9=
EXTT10=
EXTT11=
EXTT12=
EXTT13=
EXTT14=
EXTT15=
EXTT16=
EXTT17=
PLAYORDER=
